M48
;GenerationSoftware,Autodesk,EAGLE,9.7.0*%
;CreationDate,2025-05-24T09:00:24Z*%
FMAT,2
ICI,OFF
METRIC,TZ,000.000
T1C0.350
%
G90
M71
T1
X25298Y-32918
X21031Y-26365
X20117Y-21184
X44501Y-33528
X35204Y-28956
X24841Y-27127
X24841Y-23774
X15850Y-30023
X21031Y-30023
X28651Y-20574
X33985Y-26518
X10363Y-26365
X10820Y-28346
X27737Y-33680
X32461Y-20422
X32461Y-23165
X15240Y-31242
X15240Y-33680
X33071Y-26518
X22555Y-32309
M30